<svg xmlns="http://www.w3.org/2000/svg" width="1200" height="900" viewBox="0 0 1200 900">
  <defs>
    <linearGradient id="bg" x1="0" x2="1" y1="0" y2="1">
      <stop offset="0" stop-color="#fde8ef"/>
      <stop offset="1" stop-color="#b75776"/>
    </linearGradient>
    <linearGradient id="cake" x1="0" x2="0" y1="0" y2="1">
      <stop offset="0" stop-color="#fff7d8"/>
      <stop offset=".66" stop-color="#f4d18b"/>
      <stop offset="1" stop-color="#b87545"/>
    </linearGradient>
  </defs>
  <rect width="1200" height="900" fill="url(#bg)"/>
  <circle cx="1020" cy="176" r="140" fill="#ffffff" opacity=".25"/>
  <ellipse cx="600" cy="640" rx="374" ry="94" fill="#5d2338" opacity=".24"/>
  <path d="M342 376c148-70 358-94 512-24 36 16 38 68 0 84L476 640c-54 30-138-6-138-66z" fill="url(#cake)"/>
  <path d="M342 376c148-70 358-94 512-24 36 16 38 68 0 84L478 568c-60 22-136-10-136-72z" fill="#fff8df"/>
  <path d="M392 438c124 50 270 38 432-50" fill="none" stroke="#ca5072" stroke-width="30" stroke-linecap="round"/>
  <g fill="#b62954">
    <circle cx="500" cy="376" r="36"/>
    <circle cx="620" cy="356" r="34"/>
    <circle cx="742" cy="386" r="38"/>
  </g>
  <g fill="#2e7c47">
    <ellipse cx="532" cy="330" rx="28" ry="10" transform="rotate(-28 532 330)"/>
    <ellipse cx="694" cy="338" rx="30" ry="10" transform="rotate(22 694 338)"/>
  </g>
</svg>
