<svg xmlns="http://www.w3.org/2000/svg" width="1200" height="900" viewBox="0 0 1200 900">
  <defs>
    <linearGradient id="bg" x1="0" x2="1" y1="0" y2="1">
      <stop offset="0" stop-color="#eef4cf"/>
      <stop offset="1" stop-color="#7ead63"/>
    </linearGradient>
  </defs>
  <rect width="1200" height="900" fill="url(#bg)"/>
  <circle cx="998" cy="174" r="138" fill="#ffffff" opacity=".28"/>
  <ellipse cx="600" cy="530" rx="430" ry="244" fill="#1d3727" opacity=".2"/>
  <ellipse cx="600" cy="492" rx="392" ry="228" fill="#fffdf2"/>
  <g fill="#4d8d3a">
    <ellipse cx="480" cy="470" rx="150" ry="64" transform="rotate(-26 480 470)"/>
    <ellipse cx="636" cy="434" rx="170" ry="72" transform="rotate(13 636 434)"/>
    <ellipse cx="706" cy="552" rx="164" ry="68" transform="rotate(-18 706 552)"/>
    <ellipse cx="484" cy="574" rx="128" ry="58" transform="rotate(18 484 574)"/>
  </g>
  <g fill="#d9904f" stroke="#965b34" stroke-width="8">
    <rect x="420" y="360" width="128" height="62" rx="18" transform="rotate(18 484 391)"/>
    <rect x="554" y="540" width="144" height="62" rx="18" transform="rotate(-17 626 571)"/>
    <rect x="704" y="420" width="126" height="58" rx="18" transform="rotate(12 767 449)"/>
  </g>
  <g fill="#f6d681">
    <rect x="362" y="530" width="76" height="54" rx="12" transform="rotate(-14 400 557)"/>
    <rect x="760" y="586" width="74" height="54" rx="12" transform="rotate(20 797 613)"/>
    <rect x="640" y="340" width="68" height="48" rx="12" transform="rotate(-8 674 364)"/>
  </g>
  <g fill="#fff4c8">
    <rect x="502" y="462" width="112" height="18" rx="8" transform="rotate(-16 558 471)"/>
    <rect x="650" y="492" width="108" height="18" rx="8" transform="rotate(18 704 501)"/>
  </g>
</svg>
