<svg xmlns="http://www.w3.org/2000/svg" width="1200" height="900" viewBox="0 0 1200 900">
  <defs>
    <linearGradient id="bg" x1="0" x2="1" y1="0" y2="1">
      <stop offset="0" stop-color="#f8ead5"/>
      <stop offset="1" stop-color="#d99b5f"/>
    </linearGradient>
    <radialGradient id="broth" cx="50%" cy="46%" r="58%">
      <stop offset="0" stop-color="#ffd98a"/>
      <stop offset="1" stop-color="#c77834"/>
    </radialGradient>
  </defs>
  <rect width="1200" height="900" fill="url(#bg)"/>
  <circle cx="188" cy="170" r="96" fill="#fff7e8" opacity=".42"/>
  <circle cx="1024" cy="748" r="160" fill="#9c4f2d" opacity=".16"/>
  <ellipse cx="600" cy="515" rx="410" ry="248" fill="#75402c" opacity=".24"/>
  <ellipse cx="600" cy="482" rx="392" ry="246" fill="#fff9ed"/>
  <ellipse cx="600" cy="484" rx="326" ry="194" fill="url(#broth)"/>
  <g fill="#fff5dc" stroke="#d48a45" stroke-width="9" stroke-linejoin="round">
    <path d="M372 426c36-58 118-70 160-10 6 44-24 84-78 88-52 4-88-30-82-78z"/>
    <path d="M510 368c44-54 128-48 158 20-2 48-42 78-94 70-50-8-78-44-64-90z"/>
    <path d="M642 426c42-56 124-54 158 10 0 48-36 82-88 78-52-3-82-38-70-88z"/>
    <path d="M456 538c44-52 124-44 154 20-6 46-42 74-92 66-48-7-74-42-62-86z"/>
    <path d="M606 542c38-56 120-62 158-2 4 48-30 82-82 82-52 0-86-34-76-80z"/>
  </g>
  <g fill="#397d4a">
    <ellipse cx="352" cy="356" rx="20" ry="8" transform="rotate(-24 352 356)"/>
    <ellipse cx="770" cy="380" rx="24" ry="8" transform="rotate(22 770 380)"/>
    <ellipse cx="540" cy="628" rx="22" ry="8" transform="rotate(-16 540 628)"/>
    <ellipse cx="690" cy="334" rx="18" ry="7" transform="rotate(32 690 334)"/>
  </g>
</svg>
