<svg xmlns="http://www.w3.org/2000/svg" width="1200" height="900" viewBox="0 0 1200 900">
  <defs>
    <linearGradient id="bg" x1="0" x2="1" y1="0" y2="1">
      <stop offset="0" stop-color="#e9f6dd"/>
      <stop offset="1" stop-color="#4e9b70"/>
    </linearGradient>
  </defs>
  <rect width="1200" height="900" fill="url(#bg)"/>
  <circle cx="172" cy="172" r="114" fill="#ffffff" opacity=".3"/>
  <ellipse cx="600" cy="536" rx="420" ry="244" fill="#173625" opacity=".2"/>
  <ellipse cx="600" cy="494" rx="384" ry="224" fill="#fffdf0"/>
  <g fill="#6da95c">
    <ellipse cx="468" cy="460" rx="152" ry="58" transform="rotate(-18 468 460)"/>
    <ellipse cx="664" cy="438" rx="166" ry="62" transform="rotate(14 664 438)"/>
    <ellipse cx="610" cy="574" rx="180" ry="68" transform="rotate(-8 610 574)"/>
  </g>
  <g fill="#f2d36e">
    <circle cx="470" cy="536" r="16"/>
    <circle cx="518" cy="482" r="14"/>
    <circle cx="612" cy="528" r="16"/>
    <circle cx="690" cy="590" r="14"/>
    <circle cx="748" cy="490" r="16"/>
    <circle cx="574" cy="610" r="14"/>
  </g>
  <g>
    <ellipse cx="426" cy="416" rx="88" ry="52" fill="#2f7d45" transform="rotate(-18 426 416)"/>
    <ellipse cx="426" cy="416" rx="46" ry="28" fill="#d8e871" transform="rotate(-18 426 416)"/>
    <circle cx="430" cy="418" r="18" fill="#8b5735"/>
    <circle cx="780" cy="554" r="44" fill="#d84c3a"/>
    <circle cx="354" cy="566" r="38" fill="#d84c3a"/>
    <rect x="680" y="362" width="106" height="28" rx="14" fill="#cfe8d6" transform="rotate(16 733 376)"/>
  </g>
</svg>
