<svg xmlns="http://www.w3.org/2000/svg" width="1200" height="900" viewBox="0 0 1200 900">
  <defs>
    <linearGradient id="bg" x1="0" x2="1" y1="0" y2="1">
      <stop offset="0" stop-color="#fff2c8"/>
      <stop offset="1" stop-color="#e98228"/>
    </linearGradient>
    <linearGradient id="drink" x1="0" x2="0" y1="0" y2="1">
      <stop offset="0" stop-color="#ffd257"/>
      <stop offset="1" stop-color="#d65b20"/>
    </linearGradient>
  </defs>
  <rect width="1200" height="900" fill="url(#bg)"/>
  <circle cx="202" cy="196" r="122" fill="#ffffff" opacity=".3"/>
  <ellipse cx="604" cy="700" rx="238" ry="68" fill="#743718" opacity=".24"/>
  <path d="M446 238h306l-42 432c-6 62-62 110-114 110h-4c-52 0-108-48-114-110z" fill="#fff9e9" opacity=".84"/>
  <path d="M478 354h242l-30 296c-5 50-50 88-92 88h-2c-42 0-88-38-92-88z" fill="url(#drink)"/>
  <path d="M474 354c72 36 164 36 250 0" fill="none" stroke="#ffe48a" stroke-width="18" stroke-linecap="round" opacity=".8"/>
  <g fill="#f59a22">
    <circle cx="396" cy="424" r="28"/>
    <circle cx="792" cy="442" r="30"/>
    <circle cx="828" cy="540" r="24"/>
    <circle cx="368" cy="552" r="22"/>
  </g>
  <g stroke="#2d7a42" stroke-width="10" stroke-linecap="round">
    <path d="M770 370c64-66 114-88 164-76"/>
    <path d="M420 352c-56-54-102-72-154-58"/>
  </g>
  <g fill="#2d7a42">
    <ellipse cx="858" cy="316" rx="34" ry="12" transform="rotate(-18 858 316)"/>
    <ellipse cx="312" cy="306" rx="32" ry="12" transform="rotate(24 312 306)"/>
  </g>
</svg>
