<svg xmlns="http://www.w3.org/2000/svg" width="1200" height="900" viewBox="0 0 1200 900">
  <defs>
    <linearGradient id="bg" x1="0" x2="1" y1="0" y2="1">
      <stop offset="0" stop-color="#fff0cf"/>
      <stop offset="1" stop-color="#cc5538"/>
    </linearGradient>
    <linearGradient id="plate" x1="0" x2="0" y1="0" y2="1">
      <stop offset="0" stop-color="#ffffff"/>
      <stop offset="1" stop-color="#f2eee2"/>
    </linearGradient>
  </defs>
  <rect width="1200" height="900" fill="url(#bg)"/>
  <circle cx="1000" cy="172" r="130" fill="#b53025" opacity=".16"/>
  <circle cx="188" cy="742" r="180" fill="#fff8dc" opacity=".2"/>
  <ellipse cx="600" cy="525" rx="430" ry="252" fill="#632b24" opacity=".22"/>
  <ellipse cx="600" cy="484" rx="396" ry="236" fill="url(#plate)"/>
  <g fill="none" stroke="#f4c45f" stroke-width="24" stroke-linecap="round">
    <path d="M370 502c98-92 238-122 354-80 82 30 122 88 118 146"/>
    <path d="M398 560c82-118 236-162 370-112 74 28 112 76 120 130"/>
    <path d="M328 456c142 74 276 74 404 0 72-42 128-36 166 18"/>
    <path d="M398 430c88 120 236 156 388 96 58-22 106-12 146 30"/>
    <path d="M466 620c72-70 170-98 274-80"/>
  </g>
  <g fill="#c72f22">
    <circle cx="448" cy="438" r="42"/>
    <circle cx="742" cy="404" r="38"/>
    <circle cx="820" cy="552" r="44"/>
    <circle cx="538" cy="590" r="36"/>
  </g>
  <g fill="#2f7a3b">
    <ellipse cx="620" cy="382" rx="48" ry="18" transform="rotate(-28 620 382)"/>
    <ellipse cx="684" cy="602" rx="48" ry="18" transform="rotate(24 684 602)"/>
    <ellipse cx="392" cy="540" rx="42" ry="16" transform="rotate(-8 392 540)"/>
  </g>
  <g fill="#fff6d9">
    <rect x="560" y="338" width="70" height="22" rx="8" transform="rotate(-18 595 349)"/>
    <rect x="730" y="486" width="74" height="22" rx="8" transform="rotate(24 767 497)"/>
  </g>
</svg>
