<svg xmlns="http://www.w3.org/2000/svg" width="1200" height="900" viewBox="0 0 1200 900">
  <defs>
    <linearGradient id="bg" x1="0" x2="1" y1="0" y2="1">
      <stop offset="0" stop-color="#f5eadc"/>
      <stop offset="1" stop-color="#8f6547"/>
    </linearGradient>
    <linearGradient id="coffee" x1="0" x2="0" y1="0" y2="1">
      <stop offset="0" stop-color="#f2d3a6"/>
      <stop offset=".5" stop-color="#c58a5e"/>
      <stop offset="1" stop-color="#6e3f2e"/>
    </linearGradient>
  </defs>
  <rect width="1200" height="900" fill="url(#bg)"/>
  <circle cx="990" cy="180" r="136" fill="#ffffff" opacity=".24"/>
  <ellipse cx="606" cy="720" rx="248" ry="68" fill="#3c241b" opacity=".22"/>
  <path d="M444 212h312l-46 468c-6 66-58 108-108 108h-4c-50 0-102-42-108-108z" fill="#fff9f0" opacity=".88"/>
  <path d="M482 338h236l-32 322c-5 48-44 82-86 82s-82-34-86-82z" fill="url(#coffee)"/>
  <path d="M484 338c74 38 154 38 232 0" fill="none" stroke="#fff0d8" stroke-width="22" stroke-linecap="round" opacity=".92"/>
  <g fill="#f8f1e8" opacity=".8">
    <rect x="520" y="400" width="78" height="64" rx="14" transform="rotate(-12 559 432)"/>
    <rect x="626" y="494" width="76" height="60" rx="14" transform="rotate(16 664 524)"/>
    <rect x="508" y="562" width="68" height="54" rx="14" transform="rotate(9 542 589)"/>
  </g>
  <path d="M618 210c36-82 86-122 150-122" fill="none" stroke="#5b3828" stroke-width="18" stroke-linecap="round"/>
  <path d="M750 90l74 20" stroke="#5b3828" stroke-width="18" stroke-linecap="round"/>
</svg>
